<svg width="20" height="20" viewBox="0 0 20 20" fill="none" xmlns="http://www.w3.org/2000/svg">
<path d="M13.7496 6.33008L8.9096 11.26L6.42959 8.77006L5.09961 10.1001L9.00959 14.0001L15.2896 7.91009L13.7496 6.33008Z" fill="#FFC627"/>
<path d="M9.99998 0C4.47717 0 0 4.47717 0 9.99998C0 15.5228 4.47717 20 9.99998 20C15.5228 20 20 15.5228 20 9.99998C20 4.47717 15.5228 0 9.99998 0ZM9.99998 18.19C5.47678 18.19 1.80998 14.5232 1.80998 9.99998C1.80998 5.47678 5.47678 1.80998 9.99998 1.80998C14.5209 1.81547 18.1844 5.47903 18.19 9.99998C18.19 14.5232 14.5232 18.19 9.99998 18.19Z" fill="#FFC627"/>
</svg>
